<?xml version="1.0" standalone="no"?>
<!DOCTYPE svg PUBLIC "-//W3C//DTD SVG 20010904//EN"
 "http://www.w3.org/TR/2001/REC-SVG-20010904/DTD/svg10.dtd">
<svg version="1.0" xmlns="http://www.w3.org/2000/svg"
 width="512.000000pt" height="512.000000pt" viewBox="0 0 512.000000 512.000000"
 preserveAspectRatio="xMidYMid meet">

<g transform="translate(0.000000,512.000000) scale(0.100000,-0.100000)"
fill="#000000" stroke="none">
<path d="M2402 5020 c-425 -54 -709 -275 -897 -699 -104 -235 -180 -520 -296
-1113 l-72 -368 -131 0 c-145 0 -186 -12 -239 -66 -59 -59 -62 -70 -67 -319
l-5 -230 -39 -65 c-22 -36 -119 -193 -216 -350 -241 -389 -242 -391 -309 -531
-66 -136 -104 -254 -120 -373 -31 -219 6 -363 120 -479 100 -99 254 -157 471
-176 62 -5 114 -14 116 -20 18 -53 87 -113 151 -131 50 -14 3332 -14 3382 0
64 18 133 78 151 131 2 6 52 15 112 20 146 12 235 34 334 80 176 81 272 234
272 430 0 178 -43 338 -145 544 -82 166 -282 497 -321 533 -31 28 -64 28 -98
1 -45 -36 -36 -64 77 -247 97 -155 167 -274 197 -331 l12 -23 -44 27 c-72 44
-215 112 -299 142 l-78 28 -3 625 c-3 686 0 649 -65 714 -53 54 -94 66 -239
66 l-132 0 -56 293 c-122 628 -184 877 -277 1106 -61 153 -121 265 -198 369
-91 123 -130 144 -185 101 -17 -13 -26 -30 -26 -48 0 -27 6 -37 92 -150 145
-191 262 -509 358 -974 10 -49 14 -85 10 -80 -4 4 -31 44 -60 88 -208 313
-467 487 -824 552 -124 23 -388 23 -512 0 -357 -65 -616 -239 -824 -552 -29
-44 -56 -84 -61 -89 -12 -13 46 250 92 419 158 582 379 863 761 967 75 21 104
23 293 22 240 0 303 -12 453 -84 46 -22 91 -40 101 -40 51 0 86 71 57 115 -32
49 -214 124 -366 151 -107 19 -313 26 -408 14z m481 -1093 c90 -24 276 -104
320 -139 17 -12 7 -14 -85 -15 -182 -2 -340 -50 -426 -128 -41 -37 -41 -37
-132 -37 -91 0 -91 0 -132 37 -86 79 -243 125 -427 128 -117 1 -117 1 8 66
182 95 315 122 581 117 171 -3 207 -6 293 -29z m-679 -331 c76 -25 135 -63
142 -92 4 -14 4 -55 1 -91 -7 -91 -47 -168 -111 -210 -65 -44 -114 -56 -226
-56 -160 1 -253 51 -310 166 -32 65 -49 170 -36 222 7 29 62 59 139 75 68 14
344 5 401 -14z m1179 -5 c31 -13 62 -32 68 -44 21 -38 4 -162 -31 -233 -57
-116 -150 -166 -310 -167 -112 0 -161 12 -226 56 -67 44 -105 120 -112 220 -2
42 0 82 6 93 6 11 33 32 61 48 82 44 156 56 331 52 131 -2 164 -6 213 -25z
m-769 -147 c3 -9 6 -31 6 -49 0 -45 32 -144 63 -198 52 -88 153 -160 267 -188
74 -19 261 -17 323 4 26 8 47 13 47 10 0 -3 -7 -45 -16 -94 l-17 -89 -190 0
c-182 0 -192 -1 -214 -22 -28 -26 -30 -67 -4 -99 l19 -24 666 -3 665 -2 20
-27 c21 -26 21 -32 21 -1037 0 -556 -3 -1021 -6 -1034 -15 -53 -2 -52 -827
-52 -753 0 -764 0 -782 -20 -28 -31 -24 -79 9 -107 l27 -23 790 0 789 0 0 -37
c0 -59 -10 -83 -41 -98 -42 -22 -3296 -22 -3338 0 -34 17 -41 33 -41 91 l0 44
789 0 c782 0 789 0 815 21 33 26 36 79 6 109 -20 20 -33 20 -780 20 -806 0
-806 0 -824 45 -3 9 -6 475 -6 1036 l0 1020 25 24 24 25 817 0 c649 0 815 -3
811 -12 -14 -38 -316 -985 -317 -998 -5 -32 1 -51 20 -70 19 -19 33 -20 225
-20 147 0 205 -3 205 -11 0 -7 -56 -186 -125 -400 -69 -213 -125 -397 -125
-409 0 -28 43 -70 73 -70 55 0 62 15 212 485 80 247 145 464 145 482 0 22 -8
38 -26 52 -25 20 -40 21 -225 21 -120 0 -199 4 -199 10 0 5 72 233 160 507 88
274 160 506 160 517 0 11 -10 30 -22 43 l-21 23 -417 0 -417 0 -17 89 c-9 49
-16 91 -16 94 0 3 21 -2 48 -10 61 -21 248 -23 322 -4 114 28 215 100 267 188
31 54 63 153 63 198 0 57 7 65 60 65 34 0 50 -4 54 -16z m-1914 -1761 l0 -248
-95 -34 c-169 -61 -211 -98 -186 -159 14 -33 59 -58 88 -49 10 3 56 22 103 41
l85 35 5 -362 c4 -276 8 -368 18 -388 12 -23 12 -31 -2 -57 -9 -17 -16 -39
-16 -48 0 -38 -270 5 -379 60 -142 73 -189 193 -159 409 20 138 68 269 160
434 58 103 370 612 376 613 1 0 2 -111 2 -247z m3940 -509 c253 -135 365 -312
316 -502 -37 -146 -139 -220 -353 -257 -115 -20 -183 -20 -183 0 0 9 -7 30
-16 46 -14 28 -14 34 0 70 14 33 16 94 16 389 l0 350 67 -26 c37 -13 106 -45
153 -70z"/>
</g>
</svg>
